<svg t="1705498881765" class="icon" viewBox="0 0 1024 1024" version="1.1" xmlns="http://www.w3.org/2000/svg" p-id="1607"
     width="200" height="200">
    <path
        d="M830.4 848H193.6c-17.6 0-32 14.4-32 32s14.4 32 32 32h635.2c17.6 0 32-14.4 32-32s-12.8-32-30.4-32zM193.6 785.6c4.8 1.6 9.6 3.2 14.4 3.2 11.2 0 22.4-6.4 28.8-17.6l94.4-190.4h361.6l94.4 190.4c4.8 11.2 17.6 17.6 28.8 17.6 4.8 0 9.6-1.6 14.4-3.2 16-8 22.4-27.2 14.4-43.2l-304-612.8c0-1.6-1.6-1.6-1.6-3.2l-1.6-1.6c0-1.6-1.6-1.6-1.6-1.6l-1.6-1.6-1.6-1.6c-1.6 0-1.6-1.6-3.2-1.6H528c-1.6 0-1.6-1.6-3.2-1.6h-19.2c-1.6 0-1.6 0-3.2 1.6h-1.6c-1.6 0-1.6 1.6-3.2 1.6l-1.6 1.6-1.6 1.6-1.6 1.6-1.6 1.6c0 1.6-1.6 1.6-1.6 3.2l-304 612.8c-14.4 16-8 35.2 8 43.2z m169.6-268.8L512 216l148.8 300.8H363.2z"
        fill="#000000" p-id="1608"></path>
</svg>
